<?xml version="1.0" encoding="utf-8"?>
<svg version="1.0" width="2048.000000pt" height="2048.000000pt" viewBox="0 0 2048.000000 2048.000000" preserveAspectRatio="xMidYMid meet" xmlns="http://www.w3.org/2000/svg" xmlns:bx="https://boxy-svg.com">
  <defs>
    <linearGradient gradientUnits="userSpaceOnUse" x1="9018.212" y1="2368.263" x2="9018.212" y2="18222.322" id="gradient-2">
      <stop offset="0" style="stop-color: rgba(72, 42, 113, 1)"/>
      <stop offset="1" style="stop-color: rgba(24, 14, 39, 1)"/>
    </linearGradient>
    <linearGradient gradientUnits="userSpaceOnUse" x1="6956.223" y1="6341.752" x2="6956.223" y2="7388.924" id="gradient-3">
      <stop offset="0" style="stop-color: rgba(72, 42, 113, 1)"/>
      <stop offset="1" style="stop-color: rgba(24, 14, 39, 1)"/>
    </linearGradient>
    <style bx:fonts="Poppins">@import url(https://fonts.googleapis.com/css2?family=Poppins%3Aital%2Cwght%400%2C100%3B0%2C200%3B0%2C300%3B0%2C400%3B0%2C500%3B0%2C600%3B0%2C700%3B0%2C800%3B0%2C900%3B1%2C100%3B1%2C200%3B1%2C300%3B1%2C400%3B1%2C500%3B1%2C600%3B1%2C700%3B1%2C800%3B1%2C900&amp;display=swap);</style>
  </defs>
  <g transform="translate(0.000000,2048.000000) scale(0.100000,-0.100000)" fill="#000000" stroke="none" style="">
    <path d="M9254 18188 c-17 -24 -43 -65 -57 -93 -14 -27 -60 -102 -103 -165 -43 -63 -96 -142 -118 -175 -23 -33 -111 -175 -198 -315 -251 -409 -238 -390 -588 -880 -361 -506 -492 -700 -860 -1280 -578 -910 -829 -1351 -1269 -2230 -222 -444 -252 -510 -443 -945 -175 -399 -196 -453 -291 -755 -111 -353 -143 -475 -207 -785 -127 -620 -178 -1083 -187 -1705 -7 -498 8 -693 87 -1100 97 -501 198 -832 387 -1270 163 -378 258 -554 478 -885 369 -555 805 -983 1305 -1282 288 -172 616 -315 933 -407 435 -126 785 -174 1197 -162 538 14 927 87 1595 296 634 199 866 251 1040 236 94 -9 131 -20 188 -56 72 -46 98 -109 105 -255 14 -319 -91 -637 -349 -1057 -45 -73 -96 -151 -114 -173 -31 -40 -165 -229 -217 -309 -96 -145 77 -42 277 165 275 284 451 588 609 1047 64 189 86 291 86 412 0 158 -52 263 -209 420 -165 166 -247 286 -401 584 -142 275 -261 563 -304 737 -161 648 -75 1241 279 1934 78 153 329 584 430 740 260 400 522 910 616 1200 39 119 103 381 130 530 30 162 32 480 5 630 -78 434 -257 818 -499 1072 -254 267 -512 373 -905 373 -235 0 -404 -41 -600 -145 -224 -119 -429 -317 -578 -557 -124 -200 -173 -309 -248 -551 -58 -188 -85 -353 -94 -579 l-7 -183 -44 85 c-61 118 -103 182 -181 275 -212 253 -448 421 -727 518 -444 155 -904 112 -1247 -117 -525 -351 -723 -1070 -485 -1765 211 -613 693 -1095 1305 -1300 122 -41 404 -114 659 -171 216 -48 712 -176 788 -203 138 -50 318 -177 402 -285 25 -31 66 -97 91 -147 74 -146 110 -169 144 -92 24 51 25 104 5 180 -73 280 -404 580 -823 746 -147 59 -294 102 -652 191 -361 90 -462 121 -615 194 -352 167 -615 406 -823 746 -85 141 -170 364 -199 524 -20 113 -22 362 -4 466 44 251 166 481 325 612 121 100 220 149 395 196 86 23 115 25 276 26 163 0 190 -2 285 -26 280 -70 485 -187 708 -402 202 -195 288 -325 346 -519 19 -65 42 -129 51 -143 20 -32 55 -29 72 6 19 40 42 248 53 485 16 330 42 466 142 735 65 174 89 220 199 385 277 415 635 620 1049 602 237 -11 400 -70 551 -201 134 -117 223 -237 310 -420 198 -419 245 -784 156 -1206 -46 -217 -91 -392 -123 -482 -61 -169 -390 -803 -583 -1121 -254 -421 -482 -912 -591 -1275 -94 -311 -134 -741 -94 -1024 39 -284 183 -722 313 -956 97 -174 330 -529 464 -706 l59 -78 -38 6 c-103 17 -331 18 -439 2 -149 -22 -429 -91 -732 -181 -560 -167 -900 -232 -1337 -256 -509 -28 -1001 51 -1516 243 -585 217 -1087 596 -1546 1166 -91 114 -295 415 -387 573 -152 260 -330 665 -440 1004 -83 255 -183 694 -221 970 -51 371 -47 945 9 1460 86 782 324 1666 676 2513 202 485 662 1447 904 1887 261 476 646 1121 972 1630 344 537 645 1044 834 1406 140 268 144 278 229 519 118 335 216 657 208 681 -2 6 -17 -9 -34 -33z" style="paint-order: fill; fill-rule: nonzero; fill: url(#gradient-2);"/>
    <path d="M6850 7374 c-129 -47 -231 -168 -270 -321 -25 -97 -25 -189 0 -288 63 -245 222 -405 418 -422 96 -8 197 23 256 78 87 80 124 226 76 304 -38 62 -160 133 -160 93 0 -6 9 -30 20 -53 18 -37 19 -49 10 -92 -14 -63 -43 -111 -76 -123 -94 -36 -180 36 -230 194 -29 91 -29 169 2 245 34 87 94 102 176 46 82 -57 126 -58 179 -6 83 84 17 254 -127 326 -74 36 -202 45 -274 19z" style="paint-order: fill; fill-rule: nonzero; fill: url(#gradient-3);"/>
  </g>
  <text style="fill: rgb(97, 68, 131); font-family: Poppins; font-size: 146px; letter-spacing: 2.4px; text-transform: capitalize; word-spacing: -24px; white-space: pre;" x="680.391" y="1913.74">Gestamor</text>
  <text style="white-space: pre; fill: rgb(51, 51, 51); font-family: Arial, sans-serif; font-size: 63.7px;" x="655.36" y="1945.6"> </text>
</svg>