<?xml version="1.0" standalone="no"?>
<!DOCTYPE svg PUBLIC "-//W3C//DTD SVG 20010904//EN"
 "http://www.w3.org/TR/2001/REC-SVG-20010904/DTD/svg10.dtd">
<svg version="1.0" xmlns="http://www.w3.org/2000/svg"
 width="2417.000000pt" height="1609.000000pt" viewBox="0 0 2417.000000 1609.000000"
 preserveAspectRatio="xMidYMid meet">

<g transform="translate(0.000000,1609.000000) scale(0.100000,-0.100000)"
fill="#000000" stroke="none">
<path d="M8900 14505 c-698 -82 -1343 -403 -1883 -938 -673 -667 -1078 -1543
-1134 -2453 -93 -1504 543 -3068 1879 -4621 342 -398 522 -587 1273 -1343 990
-996 1267 -1285 1600 -1675 422 -493 680 -847 1059 -1453 167 -268 259 -399
297 -426 70 -48 122 -2 289 254 407 625 558 842 804 1160 398 513 753 891
1840 1958 789 773 1147 1145 1515 1571 516 598 948 1238 1254 1858 337 683
528 1350 587 2043 13 160 14 538 0 699 -67 805 -361 1510 -899 2156 -105 126
-356 374 -481 476 -337 274 -672 458 -1059 583 -271 87 -484 125 -756 133
-686 21 -1342 -229 -1907 -726 -460 -405 -812 -950 -1023 -1586 -31 -93 -59
-177 -61 -185 -3 -8 -26 50 -51 130 -124 400 -308 780 -526 1085 -452 634
-1047 1062 -1710 1231 -89 22 -140 31 -362 65 -112 17 -416 19 -545 4z m630
-932 c355 -53 692 -209 1015 -470 109 -88 337 -317 427 -428 76 -95 270 -386
372 -559 299 -506 456 -910 560 -1444 30 -149 50 -208 77 -222 10 -6 58 -10
107 -10 73 0 92 3 105 18 24 27 42 85 82 276 103 484 269 892 557 1371 297
493 540 779 873 1030 303 228 605 361 938 411 104 16 355 21 449 9 587 -73
1143 -422 1565 -982 246 -328 436 -726 518 -1089 154 -685 59 -1494 -273
-2324 -250 -626 -695 -1359 -1226 -2020 -293 -365 -515 -622 -1349 -1558 -580
-651 -874 -1006 -1185 -1429 -539 -734 -889 -1403 -1060 -2024 -22 -79 -42
-137 -45 -129 -3 8 -14 53 -26 100 -66 278 -239 719 -403 1030 -209 396 -467
797 -789 1226 -308 411 -528 675 -1218 1463 -849 970 -1203 1405 -1527 1873
-372 538 -685 1127 -876 1648 -135 369 -236 813 -265 1170 -10 122 -10 497 0
620 45 548 267 1081 651 1560 84 105 334 353 436 432 322 249 664 401 1019
454 113 16 371 15 491 -3z"/>
</g>
</svg>
